<mxfile host="app.diagrams.net" modified="2021-09-29T10:05:41.923Z" agent="5.0 (Macintosh; Intel Mac OS X 10_15_7) AppleWebKit/537.36 (KHTML, like Gecko) Chrome/93.0.4577.63 Safari/537.36" etag="7AiqJXET8ERclSBfCbn4" version="15.2.9" type="github">
  <diagram id="prtHgNgQTEPvFCAcTncT" name="Page-1">
    <mxGraphModel dx="894" dy="589" grid="1" gridSize="10" guides="1" tooltips="1" connect="1" arrows="1" fold="1" page="1" pageScale="1" pageWidth="827" pageHeight="1169" math="0" shadow="0">
      <root>
        <mxCell id="0" />
        <mxCell id="1" parent="0" />
        <mxCell id="dNxyNK7c78bLwvsdeMH5-19" value="Role" style="swimlane;html=1;childLayout=stackLayout;resizeParent=1;resizeParentMax=0;horizontal=0;startSize=20;horizontalStack=0;" parent="1" vertex="1">
          <mxGeometry x="50" y="60" width="710" height="930" as="geometry" />
        </mxCell>
        <mxCell id="dNxyNK7c78bLwvsdeMH5-20" value="Function &lt;br&gt;Department User" style="swimlane;html=1;startSize=40;horizontal=0;" parent="dNxyNK7c78bLwvsdeMH5-19" vertex="1">
          <mxGeometry x="20" width="690" height="120" as="geometry">
            <mxRectangle x="20" width="430" height="20" as="alternateBounds" />
          </mxGeometry>
        </mxCell>
        <mxCell id="T2dY3gX-q8fYthvRwjSA-81" value="" style="edgeStyle=orthogonalEdgeStyle;rounded=0;orthogonalLoop=1;jettySize=auto;html=1;" edge="1" parent="dNxyNK7c78bLwvsdeMH5-20" source="T2dY3gX-q8fYthvRwjSA-45" target="T2dY3gX-q8fYthvRwjSA-48">
          <mxGeometry relative="1" as="geometry" />
        </mxCell>
        <mxCell id="T2dY3gX-q8fYthvRwjSA-45" value="" style="ellipse;html=1;shape=startState;fillColor=#000000;strokeColor=#ff0000;" vertex="1" parent="dNxyNK7c78bLwvsdeMH5-20">
          <mxGeometry x="70" y="45" width="30" height="30" as="geometry" />
        </mxCell>
        <mxCell id="T2dY3gX-q8fYthvRwjSA-48" value="User Request" style="rounded=0;whiteSpace=wrap;html=1;" vertex="1" parent="dNxyNK7c78bLwvsdeMH5-20">
          <mxGeometry x="140" y="40" width="110" height="40" as="geometry" />
        </mxCell>
        <mxCell id="T2dY3gX-q8fYthvRwjSA-70" value="UAT Test" style="rounded=0;whiteSpace=wrap;html=1;" vertex="1" parent="dNxyNK7c78bLwvsdeMH5-20">
          <mxGeometry x="470" y="70" width="110" height="40" as="geometry" />
        </mxCell>
        <mxCell id="T2dY3gX-q8fYthvRwjSA-82" value="" style="ellipse;html=1;shape=endState;fillColor=#000000;strokeColor=#ff0000;" vertex="1" parent="dNxyNK7c78bLwvsdeMH5-20">
          <mxGeometry x="600" y="26" width="30" height="30" as="geometry" />
        </mxCell>
        <mxCell id="dNxyNK7c78bLwvsdeMH5-21" value="Function&lt;br&gt;Department Head" style="swimlane;html=1;startSize=40;horizontal=0;" parent="dNxyNK7c78bLwvsdeMH5-19" vertex="1">
          <mxGeometry x="20" y="120" width="690" height="120" as="geometry" />
        </mxCell>
        <mxCell id="T2dY3gX-q8fYthvRwjSA-49" value="Approval" style="rounded=0;whiteSpace=wrap;html=1;" vertex="1" parent="dNxyNK7c78bLwvsdeMH5-21">
          <mxGeometry x="140" y="40" width="110" height="40" as="geometry" />
        </mxCell>
        <mxCell id="dNxyNK7c78bLwvsdeMH5-22" value="IT SA" style="swimlane;html=1;startSize=40;horizontal=0;" parent="dNxyNK7c78bLwvsdeMH5-19" vertex="1">
          <mxGeometry x="20" y="240" width="690" height="330" as="geometry" />
        </mxCell>
        <mxCell id="T2dY3gX-q8fYthvRwjSA-54" value="Yes" style="edgeStyle=orthogonalEdgeStyle;rounded=0;orthogonalLoop=1;jettySize=auto;html=1;" edge="1" parent="dNxyNK7c78bLwvsdeMH5-22" source="T2dY3gX-q8fYthvRwjSA-51" target="T2dY3gX-q8fYthvRwjSA-53">
          <mxGeometry relative="1" as="geometry" />
        </mxCell>
        <mxCell id="T2dY3gX-q8fYthvRwjSA-51" value="Pass&lt;br&gt;Evaluation?" style="strokeWidth=1;html=1;shape=mxgraph.flowchart.decision;whiteSpace=wrap;" vertex="1" parent="dNxyNK7c78bLwvsdeMH5-22">
          <mxGeometry x="140" y="110" width="110" height="40" as="geometry" />
        </mxCell>
        <mxCell id="T2dY3gX-q8fYthvRwjSA-56" value="Yes" style="edgeStyle=orthogonalEdgeStyle;rounded=0;orthogonalLoop=1;jettySize=auto;html=1;" edge="1" parent="dNxyNK7c78bLwvsdeMH5-22" source="T2dY3gX-q8fYthvRwjSA-53" target="T2dY3gX-q8fYthvRwjSA-58">
          <mxGeometry relative="1" as="geometry">
            <mxPoint x="290" y="120" as="targetPoint" />
          </mxGeometry>
        </mxCell>
        <mxCell id="T2dY3gX-q8fYthvRwjSA-61" value="No" style="edgeStyle=orthogonalEdgeStyle;rounded=0;orthogonalLoop=1;jettySize=auto;html=1;" edge="1" parent="dNxyNK7c78bLwvsdeMH5-22" source="T2dY3gX-q8fYthvRwjSA-53" target="T2dY3gX-q8fYthvRwjSA-60">
          <mxGeometry relative="1" as="geometry" />
        </mxCell>
        <mxCell id="T2dY3gX-q8fYthvRwjSA-53" value="Over than 30 days" style="strokeWidth=1;html=1;shape=mxgraph.flowchart.decision;whiteSpace=wrap;" vertex="1" parent="dNxyNK7c78bLwvsdeMH5-22">
          <mxGeometry x="140" y="180" width="110" height="40" as="geometry" />
        </mxCell>
        <mxCell id="T2dY3gX-q8fYthvRwjSA-58" value="Project Process" style="verticalLabelPosition=middle;verticalAlign=middle;html=1;shape=process;whiteSpace=wrap;rounded=1;size=0.13333333333333333;arcSize=6;strokeWidth=1;labelPosition=center;align=center;" vertex="1" parent="dNxyNK7c78bLwvsdeMH5-22">
          <mxGeometry x="270" y="170" width="150" height="50" as="geometry" />
        </mxCell>
        <mxCell id="T2dY3gX-q8fYthvRwjSA-60" value="Enhancement" style="rounded=0;whiteSpace=wrap;html=1;" vertex="1" parent="dNxyNK7c78bLwvsdeMH5-22">
          <mxGeometry x="140" y="250" width="110" height="40" as="geometry" />
        </mxCell>
        <mxCell id="T2dY3gX-q8fYthvRwjSA-85" style="edgeStyle=orthogonalEdgeStyle;rounded=0;orthogonalLoop=1;jettySize=auto;html=1;entryX=0.5;entryY=0;entryDx=0;entryDy=0;entryPerimeter=0;" edge="1" parent="dNxyNK7c78bLwvsdeMH5-22" source="T2dY3gX-q8fYthvRwjSA-62" target="T2dY3gX-q8fYthvRwjSA-51">
          <mxGeometry relative="1" as="geometry" />
        </mxCell>
        <mxCell id="T2dY3gX-q8fYthvRwjSA-62" value="Create Jira Ticket" style="rounded=0;whiteSpace=wrap;html=1;" vertex="1" parent="dNxyNK7c78bLwvsdeMH5-22">
          <mxGeometry x="140" y="30" width="110" height="40" as="geometry" />
        </mxCell>
        <mxCell id="T2dY3gX-q8fYthvRwjSA-68" value="IT Test" style="rounded=0;whiteSpace=wrap;html=1;" vertex="1" parent="dNxyNK7c78bLwvsdeMH5-22">
          <mxGeometry x="390" y="250" width="110" height="40" as="geometry" />
        </mxCell>
        <mxCell id="T2dY3gX-q8fYthvRwjSA-72" value="Confirm" style="rounded=0;whiteSpace=wrap;html=1;" vertex="1" parent="dNxyNK7c78bLwvsdeMH5-22">
          <mxGeometry x="470" y="30" width="110" height="40" as="geometry" />
        </mxCell>
        <mxCell id="T2dY3gX-q8fYthvRwjSA-38" value="IT Manager /&lt;br&gt;Director" style="swimlane;html=1;startSize=40;horizontal=0;" vertex="1" parent="dNxyNK7c78bLwvsdeMH5-19">
          <mxGeometry x="20" y="570" width="690" height="120" as="geometry" />
        </mxCell>
        <mxCell id="T2dY3gX-q8fYthvRwjSA-64" value="Approval" style="rounded=0;whiteSpace=wrap;html=1;" vertex="1" parent="T2dY3gX-q8fYthvRwjSA-38">
          <mxGeometry x="140" y="40" width="110" height="40" as="geometry" />
        </mxCell>
        <mxCell id="T2dY3gX-q8fYthvRwjSA-74" value="Approval" style="rounded=0;whiteSpace=wrap;html=1;" vertex="1" parent="T2dY3gX-q8fYthvRwjSA-38">
          <mxGeometry x="470" y="40" width="110" height="40" as="geometry" />
        </mxCell>
        <mxCell id="T2dY3gX-q8fYthvRwjSA-43" value="IT Developer" style="swimlane;html=1;startSize=40;horizontal=0;" vertex="1" parent="dNxyNK7c78bLwvsdeMH5-19">
          <mxGeometry x="20" y="690" width="690" height="120" as="geometry" />
        </mxCell>
        <mxCell id="T2dY3gX-q8fYthvRwjSA-66" value="Develop" style="rounded=0;whiteSpace=wrap;html=1;" vertex="1" parent="T2dY3gX-q8fYthvRwjSA-43">
          <mxGeometry x="140" y="40" width="110" height="40" as="geometry" />
        </mxCell>
        <mxCell id="T2dY3gX-q8fYthvRwjSA-44" value="SAP Basis" style="swimlane;html=1;startSize=40;horizontal=0;" vertex="1" parent="dNxyNK7c78bLwvsdeMH5-19">
          <mxGeometry x="20" y="810" width="690" height="120" as="geometry" />
        </mxCell>
        <mxCell id="T2dY3gX-q8fYthvRwjSA-76" value="Go to Production" style="rounded=0;whiteSpace=wrap;html=1;" vertex="1" parent="T2dY3gX-q8fYthvRwjSA-44">
          <mxGeometry x="470" y="40" width="110" height="40" as="geometry" />
        </mxCell>
        <mxCell id="T2dY3gX-q8fYthvRwjSA-50" value="" style="edgeStyle=orthogonalEdgeStyle;rounded=0;orthogonalLoop=1;jettySize=auto;html=1;" edge="1" parent="dNxyNK7c78bLwvsdeMH5-19" source="T2dY3gX-q8fYthvRwjSA-48" target="T2dY3gX-q8fYthvRwjSA-49">
          <mxGeometry relative="1" as="geometry" />
        </mxCell>
        <mxCell id="T2dY3gX-q8fYthvRwjSA-52" value="" style="edgeStyle=orthogonalEdgeStyle;rounded=0;orthogonalLoop=1;jettySize=auto;html=1;" edge="1" parent="dNxyNK7c78bLwvsdeMH5-19" source="T2dY3gX-q8fYthvRwjSA-49" target="T2dY3gX-q8fYthvRwjSA-62">
          <mxGeometry relative="1" as="geometry">
            <mxPoint x="220" y="240" as="targetPoint" />
          </mxGeometry>
        </mxCell>
        <mxCell id="T2dY3gX-q8fYthvRwjSA-67" value="" style="edgeStyle=orthogonalEdgeStyle;rounded=0;orthogonalLoop=1;jettySize=auto;html=1;" edge="1" parent="dNxyNK7c78bLwvsdeMH5-19" source="T2dY3gX-q8fYthvRwjSA-64" target="T2dY3gX-q8fYthvRwjSA-66">
          <mxGeometry relative="1" as="geometry" />
        </mxCell>
        <mxCell id="T2dY3gX-q8fYthvRwjSA-69" style="edgeStyle=orthogonalEdgeStyle;rounded=0;orthogonalLoop=1;jettySize=auto;html=1;" edge="1" parent="dNxyNK7c78bLwvsdeMH5-19" source="T2dY3gX-q8fYthvRwjSA-66" target="T2dY3gX-q8fYthvRwjSA-68">
          <mxGeometry relative="1" as="geometry" />
        </mxCell>
        <mxCell id="T2dY3gX-q8fYthvRwjSA-71" style="edgeStyle=orthogonalEdgeStyle;rounded=0;orthogonalLoop=1;jettySize=auto;html=1;entryX=0;entryY=0.5;entryDx=0;entryDy=0;" edge="1" parent="dNxyNK7c78bLwvsdeMH5-19" source="T2dY3gX-q8fYthvRwjSA-68" target="T2dY3gX-q8fYthvRwjSA-70">
          <mxGeometry relative="1" as="geometry" />
        </mxCell>
        <mxCell id="T2dY3gX-q8fYthvRwjSA-73" style="edgeStyle=orthogonalEdgeStyle;rounded=0;orthogonalLoop=1;jettySize=auto;html=1;entryX=0.5;entryY=0;entryDx=0;entryDy=0;" edge="1" parent="dNxyNK7c78bLwvsdeMH5-19" source="T2dY3gX-q8fYthvRwjSA-70" target="T2dY3gX-q8fYthvRwjSA-72">
          <mxGeometry relative="1" as="geometry" />
        </mxCell>
        <mxCell id="T2dY3gX-q8fYthvRwjSA-75" style="edgeStyle=orthogonalEdgeStyle;rounded=0;orthogonalLoop=1;jettySize=auto;html=1;entryX=0.5;entryY=0;entryDx=0;entryDy=0;" edge="1" parent="dNxyNK7c78bLwvsdeMH5-19" source="T2dY3gX-q8fYthvRwjSA-72" target="T2dY3gX-q8fYthvRwjSA-74">
          <mxGeometry relative="1" as="geometry" />
        </mxCell>
        <mxCell id="T2dY3gX-q8fYthvRwjSA-78" style="edgeStyle=orthogonalEdgeStyle;rounded=0;orthogonalLoop=1;jettySize=auto;html=1;entryX=0.5;entryY=0;entryDx=0;entryDy=0;" edge="1" parent="dNxyNK7c78bLwvsdeMH5-19" source="T2dY3gX-q8fYthvRwjSA-74" target="T2dY3gX-q8fYthvRwjSA-76">
          <mxGeometry relative="1" as="geometry" />
        </mxCell>
        <mxCell id="T2dY3gX-q8fYthvRwjSA-79" style="edgeStyle=orthogonalEdgeStyle;rounded=0;orthogonalLoop=1;jettySize=auto;html=1;" edge="1" parent="dNxyNK7c78bLwvsdeMH5-19" source="T2dY3gX-q8fYthvRwjSA-76" target="T2dY3gX-q8fYthvRwjSA-82">
          <mxGeometry relative="1" as="geometry">
            <mxPoint x="635" y="100" as="targetPoint" />
            <Array as="points">
              <mxPoint x="635" y="870" />
            </Array>
          </mxGeometry>
        </mxCell>
        <mxCell id="T2dY3gX-q8fYthvRwjSA-80" value="No" style="edgeStyle=orthogonalEdgeStyle;rounded=0;orthogonalLoop=1;jettySize=auto;html=1;entryX=0;entryY=0.5;entryDx=0;entryDy=0;exitX=1;exitY=0.5;exitDx=0;exitDy=0;exitPerimeter=0;" edge="1" parent="dNxyNK7c78bLwvsdeMH5-19" source="T2dY3gX-q8fYthvRwjSA-51" target="T2dY3gX-q8fYthvRwjSA-82">
          <mxGeometry relative="1" as="geometry">
            <mxPoint x="580" y="40" as="targetPoint" />
            <Array as="points">
              <mxPoint x="450" y="370" />
              <mxPoint x="450" y="40" />
            </Array>
          </mxGeometry>
        </mxCell>
        <mxCell id="T2dY3gX-q8fYthvRwjSA-86" style="edgeStyle=orthogonalEdgeStyle;rounded=0;orthogonalLoop=1;jettySize=auto;html=1;" edge="1" parent="dNxyNK7c78bLwvsdeMH5-19" source="T2dY3gX-q8fYthvRwjSA-60" target="T2dY3gX-q8fYthvRwjSA-64">
          <mxGeometry relative="1" as="geometry" />
        </mxCell>
      </root>
    </mxGraphModel>
  </diagram>
</mxfile>
